# This file uses centimeters as units for non-parametric coordinates.

mtllib Emerald.mtl
g default
v 0.601664 0.040263 0.031509
v 0.601664 0.040263 -0.031509
v 0.841353 0.273377 0.031509
v 0.841353 0.273377 -0.031509
v 0.601665 0.273377 -0.172737
v -0.841353 0.273377 -0.031509
v -0.841353 0.273377 0.031509
v 0.601664 0.273377 0.172737
v -0.610837 0.273377 -0.172737
v -0.610837 0.040263 -0.031509
v -0.610837 0.040263 0.031509
v -0.610837 0.273377 0.172737
v -0.601664 2.218674 0.031509
v -0.601664 2.218674 -0.031509
v -0.841353 1.985560 0.031509
v -0.841353 1.985560 -0.031509
v -0.601665 1.985560 -0.172737
v 0.841353 1.985560 -0.031509
v 0.841353 1.985560 0.031509
v -0.601664 1.985560 0.172737
v 0.610837 1.985560 -0.172737
v 0.610837 2.218674 -0.031509
v 0.610837 2.218674 0.031509
v 0.610837 1.985560 0.172737
vt 0.410611 0.250000
vt 0.410611 0.500000
vt 0.375000 0.226445
vt 0.125000 0.226445
vt 0.410611 0.523555
vt 0.625000 0.523555
vt 0.875000 0.226445
vt 0.625000 0.226445
vt 0.410611 0.226445
vt 0.590752 0.523555
vt 0.590752 0.500000
vt 0.590752 0.250000
vt 0.590752 0.226445
vt 0.410611 0.250000
vt 0.410611 0.500000
vt 0.125000 0.226445
vt 0.375000 0.226445
vt 0.410611 0.226445
vt 0.410611 0.523555
vt 0.590752 0.523555
vt 0.590752 0.500000
vt 0.590752 0.250000
vt 0.590752 0.226445
vt 0.625000 0.226445
vt 0.875000 0.226445
vt 0.625000 0.523555
vn 0.697207 -0.716870 0.000001
vn 0.697207 -0.716870 0.000001
vn 0.697207 -0.716870 0.000001
vn 0.697207 -0.716870 0.000001
vn 0.450032 -0.462723 0.763779
vn 0.450032 -0.462723 0.763779
vn 0.450032 -0.462723 0.763779
vn 0.450031 -0.462723 -0.763779
vn 0.450031 -0.462723 -0.763779
vn 0.450031 -0.462723 -0.763779
vn 0.000000 -0.518160 -0.855284
vn 0.000000 -0.518160 -0.855284
vn 0.000000 -0.518160 -0.855284
vn 0.000000 -0.518160 -0.855284
vn 0.000000 -1.000000 0.000000
vn 0.000000 -1.000000 0.000000
vn 0.000000 -1.000000 0.000000
vn 0.000000 -1.000000 0.000000
vn 0.000000 -0.518160 0.855284
vn 0.000000 -0.518160 0.855284
vn 0.000000 -0.518160 0.855284
vn 0.000000 -0.518160 0.855284
vn -0.711059 -0.703133 0.000000
vn -0.711059 -0.703133 0.000000
vn -0.711059 -0.703133 0.000000
vn -0.711059 -0.703133 0.000000
vn -0.464140 -0.458966 0.757578
vn -0.464140 -0.458966 0.757578
vn -0.464140 -0.458966 0.757578
vn -0.464140 -0.458966 -0.757578
vn -0.464140 -0.458966 -0.757578
vn -0.464140 -0.458966 -0.757578
vn -0.697207 0.716870 0.000000
vn -0.697207 0.716870 0.000000
vn -0.697207 0.716870 0.000000
vn -0.697207 0.716870 0.000000
vn -0.450032 0.462724 0.763779
vn -0.450032 0.462723 0.763779
vn -0.450032 0.462723 0.763779
vn -0.450032 0.462724 -0.763779
vn -0.450032 0.462724 -0.763779
vn -0.450032 0.462724 -0.763779
vn -0.000000 0.518160 -0.855284
vn -0.000000 0.518160 -0.855284
vn -0.000000 0.518160 -0.855284
vn -0.000000 0.518160 -0.855284
vn 0.000000 1.000000 0.000000
vn 0.000000 1.000000 0.000000
vn 0.000000 1.000000 0.000000
vn 0.000000 1.000000 0.000000
vn 0.000000 0.518160 0.855284
vn 0.000000 0.518160 0.855284
vn 0.000000 0.518160 0.855284
vn 0.000000 0.518160 0.855284
vn 0.711059 0.703133 0.000000
vn 0.711059 0.703133 0.000000
vn 0.711059 0.703133 0.000000
vn 0.711059 0.703133 0.000000
vn 0.464140 0.458967 0.757577
vn 0.464141 0.458967 0.757577
vn 0.464140 0.458967 0.757577
vn 0.464141 0.458967 -0.757577
vn 0.464141 0.458967 -0.757577
vn 0.464140 0.458967 -0.757577
vn 0.514944 -0.001379 -0.857223
vn 0.514944 -0.001379 -0.857223
vn 0.514944 -0.001379 -0.857223
vn 0.514944 -0.001379 -0.857223
vn 0.000000 0.000000 -1.000000
vn 0.000000 0.000000 -1.000000
vn 0.000000 0.000000 -1.000000
vn 0.000000 0.000000 -1.000000
vn -0.514944 0.001379 -0.857223
vn -0.514944 0.001379 -0.857223
vn -0.514944 0.001379 -0.857223
vn -0.514944 0.001379 -0.857223
vn -1.000000 0.000000 -0.000001
vn -1.000000 0.000000 -0.000001
vn -1.000000 0.000000 -0.000001
vn -1.000000 0.000000 -0.000001
vn -0.514944 0.001379 0.857223
vn -0.514944 0.001379 0.857223
vn -0.514944 0.001379 0.857223
vn -0.514944 0.001379 0.857223
vn 0.000000 0.000000 1.000000
vn 0.000000 0.000000 1.000000
vn 0.000000 0.000000 1.000000
vn 0.000000 0.000000 1.000000
vn 0.514944 -0.001379 0.857223
vn 0.514944 -0.001379 0.857223
vn 0.514944 -0.001379 0.857223
vn 0.514944 -0.001379 0.857223
vn 1.000000 0.000000 -0.000001
vn 1.000000 0.000000 -0.000001
vn 1.000000 0.000000 -0.000001
vn 1.000000 0.000000 -0.000001
s off
g pCube2
usemtl initialShadingGroup
f 1/1/1 2/2/2 4/4/3 3/3/4
f 1/1/5 3/3/6 8/9/7
f 5/5/8 4/4/9 2/2/10
f 9/10/11 5/5/12 2/2/13 10/11/14
f 1/1/15 11/12/16 10/11/17 2/2/18
f 1/1/19 8/9/20 12/13/21 11/12/22
f 7/8/23 6/7/24 10/11/25 11/12/26
f 12/13/27 7/8/28 11/12/29
f 6/6/30 9/10/31 10/11/32
f 13/14/33 14/15/34 16/16/35 15/17/36
f 13/14/37 15/17/38 20/18/39
f 17/19/40 16/16/41 14/15/42
f 21/20/43 17/19/44 14/15/45 22/21/46
f 13/14/47 23/22/48 22/21/49 14/15/50
f 13/14/51 20/18/52 24/23/53 23/22/54
f 19/24/55 18/25/56 22/21/57 23/22/58
f 24/23/59 19/24/60 23/22/61
f 18/26/62 21/20/63 22/21/64
f 4/4/65 5/5/66 21/20/67 18/26/68
f 5/5/69 9/10/70 17/19/71 21/20/72
f 9/10/73 6/6/74 16/16/75 17/19/76
f 6/7/77 7/8/78 15/17/79 16/16/80
f 7/8/81 12/13/82 20/18/83 15/17/84
f 12/13/85 8/9/86 24/23/87 20/18/88
f 8/9/89 3/3/90 19/24/91 24/23/92
f 3/3/93 4/4/94 18/25/95 19/24/96
