# This file uses centimeters as units for non-parametric coordinates.

mtllib Diamond.mtl
g default
v -1.154657 0.776097 -0.375171
v -0.982210 0.776097 -0.713617
v -0.713618 0.776097 -0.982211
v -0.375171 0.776097 -1.154657
v -0.000000 0.776097 -1.214079
v 0.375171 0.776097 -1.154657
v 0.713617 0.776097 -0.982210
v 0.982210 0.776097 -0.713617
v 1.154657 0.776097 -0.375171
v 1.214079 0.776097 0.000000
v 1.154657 0.776097 0.375171
v 0.982210 0.776097 0.713617
v 0.713617 0.776097 0.982210
v 0.375171 0.776097 1.154657
v 0.000000 0.776097 1.214079
v -0.375171 0.776097 1.154657
v -0.713617 0.776097 0.982210
v -0.982210 0.776097 0.713617
v -1.154657 0.776097 0.375171
v -1.214079 0.776097 0.000000
v -0.000000 -0.776097 0.000000
v -1.214079 1.071679 0.000000
v -1.154657 1.071679 -0.375171
v -1.154657 1.071679 0.375171
v -0.982210 1.071679 0.713617
v -0.713617 1.071679 0.982210
v -0.375171 1.071679 1.154657
v 0.000000 1.071679 1.214079
v 0.375171 1.071679 1.154657
v 0.713617 1.071679 0.982210
v 0.982210 1.071679 0.713617
v 1.154657 1.071679 0.375171
v 1.214079 1.071679 0.000000
v 1.154657 1.071679 -0.375171
v 0.982210 1.071679 -0.713617
v 0.713617 1.071679 -0.982210
v 0.375171 1.071679 -1.154657
v -0.000000 1.071679 -1.214079
v -0.375171 1.071679 -1.154657
v -0.713618 1.071679 -0.982211
v -0.982210 1.071679 -0.713617
v -0.855701 1.330431 -0.000000
v -0.813819 1.330431 -0.264426
v -0.813819 1.330431 0.264426
v -0.692276 1.330431 0.502968
v -0.502968 1.330431 0.692277
v -0.264426 1.330431 0.813819
v 0.000000 1.330431 0.855701
v 0.264426 1.330431 0.813819
v 0.502968 1.330431 0.692277
v 0.692277 1.330431 0.502968
v 0.813819 1.330431 0.264426
v 0.855702 1.330431 -0.000000
v 0.813819 1.330431 -0.264426
v 0.692277 1.330431 -0.502968
v 0.502968 1.330431 -0.692277
v 0.264426 1.330431 -0.813819
v 0.000000 1.330431 -0.855702
v -0.264426 1.330431 -0.813819
v -0.502968 1.330431 -0.692277
v -0.692277 1.330431 -0.502968
vt 0.737764 0.172746
vt 0.702254 0.103054
vt 0.646946 0.047746
vt 0.577254 0.012236
vt 0.500000 -0.000000
vt 0.422746 0.012236
vt 0.353054 0.047746
vt 0.297746 0.103054
vt 0.262236 0.172746
vt 0.250000 0.250000
vt 0.262236 0.327254
vt 0.297746 0.396946
vt 0.353054 0.452254
vt 0.422746 0.487764
vt 0.500000 0.500000
vt 0.577254 0.487764
vt 0.646946 0.452254
vt 0.702254 0.396946
vt 0.737764 0.327254
vt 0.750000 0.250000
vt 0.250000 0.500000
vt 0.275000 0.500000
vt 0.300000 0.500000
vt 0.325000 0.500000
vt 0.350000 0.500000
vt 0.375000 0.500000
vt 0.400000 0.500000
vt 0.425000 0.500000
vt 0.450000 0.500000
vt 0.475000 0.500000
vt 0.500000 0.500000
vt 0.525000 0.500000
vt 0.550000 0.500000
vt 0.575000 0.500000
vt 0.600000 0.500000
vt 0.625000 0.500000
vt 0.650000 0.500000
vt 0.675000 0.500000
vt 0.700000 0.500000
vt 0.725000 0.500000
vt 0.750000 0.500000
vt 0.500000 1.000000
vt 0.737764 0.172746
vt 0.750000 0.250000
vt 0.737764 0.327254
vt 0.702254 0.396946
vt 0.646946 0.452254
vt 0.577254 0.487764
vt 0.500000 0.500000
vt 0.422746 0.487764
vt 0.353054 0.452254
vt 0.297746 0.396946
vt 0.262236 0.327254
vt 0.250000 0.250000
vt 0.262236 0.172746
vt 0.297746 0.103054
vt 0.353054 0.047746
vt 0.422746 0.012236
vt 0.500000 -0.000000
vt 0.577254 0.012236
vt 0.646946 0.047746
vt 0.702254 0.103054
vt 0.737764 0.172746
vt 0.750000 0.250000
vt 0.737764 0.327254
vt 0.702254 0.396946
vt 0.646946 0.452254
vt 0.577254 0.487764
vt 0.500000 0.500000
vt 0.422746 0.487764
vt 0.353054 0.452254
vt 0.297746 0.396946
vt 0.262236 0.327254
vt 0.250000 0.250000
vt 0.262236 0.172746
vt 0.297746 0.103054
vt 0.353054 0.047746
vt 0.422746 0.012236
vt 0.500000 -0.000000
vt 0.577254 0.012236
vt 0.646946 0.047746
vt 0.702254 0.103054
vn 0.000000 1.000000 0.000000
vn 0.000000 1.000000 0.000000
vn 0.000000 1.000000 0.000000
vn 0.000000 1.000000 0.000000
vn 0.000000 1.000000 0.000000
vn 0.000000 1.000000 0.000000
vn 0.000000 1.000000 0.000000
vn 0.000000 1.000000 0.000000
vn 0.000000 1.000000 0.000000
vn 0.000000 1.000000 0.000000
vn 0.000000 1.000000 0.000000
vn 0.000000 1.000000 0.000000
vn 0.000000 1.000000 0.000000
vn 0.000000 1.000000 0.000000
vn 0.000000 1.000000 0.000000
vn 0.000000 1.000000 0.000000
vn 0.000000 1.000000 0.000000
vn 0.000000 1.000000 0.000000
vn 0.000000 1.000000 0.000000
vn 0.000000 1.000000 0.000000
vn -0.749121 -0.616094 -0.243405
vn -0.637241 -0.616094 -0.462982
vn 0.000001 -1.000000 0.000000
vn -0.462983 -0.616094 -0.637241
vn -0.243404 -0.616094 -0.749121
vn 0.000000 -0.616094 -0.787673
vn 0.243405 -0.616094 -0.749121
vn 0.462983 -0.616094 -0.637241
vn 0.637241 -0.616094 -0.462983
vn 0.749121 -0.616094 -0.243405
vn 0.787673 -0.616094 0.000000
vn 0.749121 -0.616094 0.243405
vn 0.637241 -0.616094 0.462983
vn 0.462983 -0.616094 0.637241
vn 0.243405 -0.616094 0.749121
vn -0.000000 -0.616094 0.787673
vn -0.243405 -0.616094 0.749121
vn -0.462983 -0.616094 0.637241
vn -0.637241 -0.616094 0.462983
vn -0.749121 -0.616094 0.243405
vn -0.787673 -0.616094 0.000000
vn -0.951056 0.000000 -0.309017
vn -1.000000 -0.000000 0.000000
vn -0.870162 0.492766 0.000000
vn -0.827573 0.492766 -0.268895
vn -0.951056 -0.000000 0.309018
vn -0.827573 0.492765 0.268896
vn -0.809017 0.000000 0.587785
vn -0.703976 0.492765 0.511469
vn -0.587785 0.000000 0.809017
vn -0.511469 0.492765 0.703976
vn -0.309017 0.000000 0.951056
vn -0.268895 0.492766 0.827573
vn 0.000000 0.000000 1.000000
vn -0.000000 0.492766 0.870162
vn 0.309017 -0.000000 0.951056
vn 0.268895 0.492765 0.827573
vn 0.587785 -0.000000 0.809017
vn 0.511468 0.492765 0.703976
vn 0.809017 -0.000000 0.587785
vn 0.703976 0.492765 0.511468
vn 0.951056 -0.000000 0.309018
vn 0.827573 0.492766 0.268896
vn 1.000000 0.000000 0.000000
vn 0.870162 0.492766 -0.000000
vn 0.951056 0.000000 -0.309018
vn 0.827573 0.492765 -0.268896
vn 0.809017 -0.000000 -0.587785
vn 0.703976 0.492765 -0.511469
vn 0.587786 -0.000000 -0.809017
vn 0.511469 0.492765 -0.703976
vn 0.309018 -0.000000 -0.951056
vn 0.268896 0.492765 -0.827573
vn -0.000000 0.000000 -1.000000
vn -0.000000 0.492766 -0.870162
vn -0.309017 0.000000 -0.951057
vn -0.268895 0.492766 -0.827573
vn -0.587785 0.000000 -0.809017
vn -0.511468 0.492765 -0.703976
vn -0.809017 0.000000 -0.587785
vn -0.703976 0.492765 -0.511468
vn -0.585376 0.810762 0.000000
vn -0.556726 0.810762 -0.180891
vn -0.556726 0.810761 0.180892
vn -0.473580 0.810761 0.344076
vn -0.344076 0.810761 0.473580
vn -0.180892 0.810761 0.556726
vn 0.000000 0.810762 0.585377
vn 0.180892 0.810761 0.556727
vn 0.344076 0.810761 0.473580
vn 0.473580 0.810761 0.344076
vn 0.556726 0.810761 0.180892
vn 0.585377 0.810762 -0.000000
vn 0.556726 0.810761 -0.180892
vn 0.473580 0.810761 -0.344076
vn 0.344076 0.810761 -0.473580
vn 0.180892 0.810761 -0.556726
vn 0.000000 0.810762 -0.585377
vn -0.180892 0.810761 -0.556726
vn -0.344076 0.810761 -0.473580
vn -0.473580 0.810761 -0.344075
s off
g pCone1
usemtl initialShadingGroup
f 43/63/1 42/64/2 44/65/3 45/66/4 46/67/5 47/68/6 48/69/7 49/70/8 50/71/9 51/72/10 52/73/11 53/74/12 54/75/13 55/76/14 56/77/15 57/78/16 58/79/17 59/80/18 60/81/19 61/82/20
s 1
f 1/21/21 2/22/22 21/42/23
f 2/22/22 3/23/24 21/42/23
f 3/23/24 4/24/25 21/42/23
f 4/24/25 5/25/26 21/42/23
f 5/25/26 6/26/27 21/42/23
f 6/26/27 7/27/28 21/42/23
f 7/27/28 8/28/29 21/42/23
f 8/28/29 9/29/30 21/42/23
f 9/29/30 10/30/31 21/42/23
f 10/30/31 11/31/32 21/42/23
f 11/31/32 12/32/33 21/42/23
f 12/32/33 13/33/34 21/42/23
f 13/33/34 14/34/35 21/42/23
f 14/34/35 15/35/36 21/42/23
f 15/35/36 16/36/37 21/42/23
f 16/36/37 17/37/38 21/42/23
f 17/37/38 18/38/39 21/42/23
f 18/38/39 19/39/40 21/42/23
f 19/39/40 20/40/41 21/42/23
f 20/40/41 1/41/21 21/42/23
s 2
f 1/1/42 20/20/43 22/44/44 23/43/45
f 20/20/43 19/19/46 24/45/47 22/44/44
f 19/19/46 18/18/48 25/46/49 24/45/47
f 18/18/48 17/17/50 26/47/51 25/46/49
f 17/17/50 16/16/52 27/48/53 26/47/51
f 16/16/52 15/15/54 28/49/55 27/48/53
f 15/15/54 14/14/56 29/50/57 28/49/55
f 14/14/56 13/13/58 30/51/59 29/50/57
f 13/13/58 12/12/60 31/52/61 30/51/59
f 12/12/60 11/11/62 32/53/63 31/52/61
f 11/11/62 10/10/64 33/54/65 32/53/63
f 10/10/64 9/9/66 34/55/67 33/54/65
f 9/9/66 8/8/68 35/56/69 34/55/67
f 8/8/68 7/7/70 36/57/71 35/56/69
f 7/7/70 6/6/72 37/58/73 36/57/71
f 6/6/72 5/5/74 38/59/75 37/58/73
f 5/5/74 4/4/76 39/60/77 38/59/75
f 4/4/76 3/3/78 40/61/79 39/60/77
f 3/3/78 2/2/80 41/62/81 40/61/79
f 2/2/80 1/1/42 23/43/45 41/62/81
f 23/43/45 22/44/44 42/64/82 43/63/83
f 22/44/44 24/45/47 44/65/84 42/64/82
f 24/45/47 25/46/49 45/66/85 44/65/84
f 25/46/49 26/47/51 46/67/86 45/66/85
f 26/47/51 27/48/53 47/68/87 46/67/86
f 27/48/53 28/49/55 48/69/88 47/68/87
f 28/49/55 29/50/57 49/70/89 48/69/88
f 29/50/57 30/51/59 50/71/90 49/70/89
f 30/51/59 31/52/61 51/72/91 50/71/90
f 31/52/61 32/53/63 52/73/92 51/72/91
f 32/53/63 33/54/65 53/74/93 52/73/92
f 33/54/65 34/55/67 54/75/94 53/74/93
f 34/55/67 35/56/69 55/76/95 54/75/94
f 35/56/69 36/57/71 56/77/96 55/76/95
f 36/57/71 37/58/73 57/78/97 56/77/96
f 37/58/73 38/59/75 58/79/98 57/78/97
f 38/59/75 39/60/77 59/80/99 58/79/98
f 39/60/77 40/61/79 60/81/100 59/80/99
f 40/61/79 41/62/81 61/82/101 60/81/100
f 41/62/81 23/43/45 43/63/83 61/82/101
